# AST/ASF file generated using VICON BodyLanguage
# -----------------------------------------------
:version 1.10
:name VICON
:units
  mass 1.0
  length 0.45
  angle deg
:documentation
   .ast/.asf automatically generated from VICON data using
   VICON BodyBuilder and BodyLanguage model FoxedUp or BRILLIANT.MOD
:root
   order TX TY TZ RX RY RZ
   axis XYZ
   position 0 0 0  
   orientation 0 0 0 
:bonedata
  begin
     id 1 
     name lhipjoint
     direction 0.535335 -0.74333 0.401095 
     length 2.04549 
     axis 0 0 0  XYZ
  end
  begin
     id 2 
     name lfemur
     direction 0.34202 -0.939693 0  
     length 6.95643  
     axis 0 0 20  XYZ
    dof rx ry rz
    limits (-160.0 20.0)
           (-70.0 70.0)
           (-60.0 70.0)
  end
  begin
     id 3 
     name ltibia
     direction 0.34192 -0.939729 0   
     length 5.55969   
     axis 0 0 20   XYZ
    dof rx
    limits (-10.0 170.0)
  end
  begin
     id 4 
     name lfoot
     direction 0.216943 -0.596046 0.773088   
     length 2.27918   
     axis -90 7.62852e-016 20   XYZ
    dof rx rz
    limits (-45.0 90.0)
           (-70.0 20.0)
  end
  begin
     id 5 
     name ltoes
     direction 1.53519e-011 -4.21748e-011 1   
     length 1.05562   
     axis -90 7.62852e-016 20   XYZ
    dof rx
    limits (-90.0 20.0)
  end
  begin
     id 6 
     name rhipjoint
     direction -0.576368 -0.719173 0.38806   
     length 2.1142  
     axis 0 0 0  XYZ 
  end
  begin
     id 7 
     name rfemur
     direction -0.34202 -0.939693 0   
     length 7.07928   
     axis 0 0 -20   XYZ
    dof rx ry rz
    limits (-160.0 20.0)
           (-70.0 70.0)
           (-70.0 60.0)
  end
  begin
     id 8 
     name rtibia
     direction -0.34202 -0.939693 0   
     length 5.79974   
     axis 0 0 -20   XYZ
    dof rx
    limits (-10.0 170.0)
 end
 begin
     id 9 
     name rfoot
     direction -0.189288 -0.520065 0.832888   
     length 2.42173  
     axis -90 -7.62852e-016 -20   XYZ
    dof rx rz
    limits (-45.0 90.0)
           (-20.0 70.0)
  end
  begin
     id 10 
     name rtoes
     direction -1.53574e-011 -4.21658e-011 1   
     length 1.14469   
     axis -90 -7.62852e-016 -20   XYZ
    dof rx
    limits (-90.0 20.0)
  end
  begin
     id 11 
     name lowerback
     direction -0.00135702 0.993803 0.111144   
     length 1.91308   
     axis 0 0 0   XYZ
    dof rx ry rz
    limits (-20.0 45.0)
           (-30.0 30.0)
           (-30.0 30.0)
  end
  begin
     id 12 
     name upperback
     direction -0.0056745 0.999813 0.0184631   
     length 1.9212   
     axis 0 0 0   XYZ
    dof rx ry rz
    limits (-20.0 45.0)
           (-30.0 30.0)
           (-30.0 30.0)
  end
  begin
     id 13 
     name thorax
     direction -0.00733434 0.999426 -0.0330788   
     length 1.94196   
     axis 0 0 0   XYZ
    dof rx ry rz
    limits (-20.0 45.0)
           (-30.0 30.0)
           (-30.0 30.0)
  end
  begin
     id 14 
     name lowerneck
     direction 0.0563074 0.996944 -0.0541571   
     length 2.34257   
     axis 0 0 0   XYZ
    dof rx ry rz
    limits (-20.0 45.0)
           (-30.0 30.0)
           (-30.0 30.0)
  end
  begin
     id 15 
     name upperneck
     direction -0.0544519 0.976166 -0.210085   
     length 2.32506   
     axis 0 0 0   XYZ
    dof rx ry rz
    limits (-20.0 45.0)
           (-30.0 30.0)
           (-30.0 30.0)
  end
  begin
     id 16
     name head
     direction -0.0226035 0.997615 -0.0652205  
     length 2.3648  
     axis 0 0 0   XYZ
    dof rx ry rz
    limits (-20.0 45.0)
           (-30.0 30.0)
           (-30.0 30.0)
  end
  begin
     id 17 
     name lclavicle
     direction 0.92109 0.381297 -0.0787716  
     length 4.0487  
     axis 0 0 0   XYZ
    dof ry rz
    limits (-20.0 10.0)
           (0.0 20.0)
  end
  begin
     id 18 
     name lhumerus
     direction 1 -4.48986e-011 3.56724e-027   
     length 4.94991   
     axis 180 -30 -90   XYZ
    dof rx ry rz
    limits (-60.0 90.0)
           (-90.0 90.0)
           (-90.0 90.0)
  end
  begin
     id 19
     name lradius
     direction 1 -4.48981e-011 8.62147e-027   
     length 2.7606   
     axis 180 -30 -90   XYZ
    dof rx
    limits (-10.0 170.0)
  end
  begin
     id 20
     name lwrist
     direction 1 -4.48989e-011 1.59799e-026   
     length 1.3803   
     axis -1.17785e-014 90 90   XYZ
    dof ry
    limits (-180.0 0.0)
 end
  begin
     id 21 
     name lhand
     direction 1 -4.48896e-011 3.19599e-026   
     length 0.843936   
     axis -2.03931e-014 90 90   XYZ
    dof rx rz
    limits (-90.0 90.0)
           (-45.0 45.0)
  end
  begin
     id 22 
     name lfingers
     direction 1 -4.48887e-011 6.39197e-026   
     length 0.680403   
     axis -4.07862e-014 90 90   XYZ
    dof rx
    limits (0.0 90.0)
  end
  begin
     id 23
     name lthumb
     direction 0.707107 -6.348e-011 0.707107   
     length 0.976926   
     axis -90 45 2.85299e-015   XYZ
    dof rx rz
    limits (-45.0 45.0)
           (-45.0 45.0)
  end
  begin
     id 24 
     name rclavicle
     direction -0.951104 0.307692 -0.026953   
     length 4.21801  
     axis 0 0 0   XYZ 
    dof ry rz
    limits (-10.0 20.0)
           (-20.0 0.0)
  end
  begin
     id 25 
     name rhumerus
     direction -1 -4.4896e-011 -1.8171e-018  
     length 4.32982   
     axis 180 30 90   XYZ
    dof rx ry rz
    limits (-90.0 60.0)
           (-90.0 90.0)
           (-90.0 90.0)
  end
  begin
     id 26 
     name rradius
     direction -1 -4.48959e-011 8.25165e-027   
     length 3.20057   
     axis 180 30 90   XYZ
    dof rx
    limits (-10.0 170.0)
  end
  begin
     id 27 
     name rwrist
     direction -1 -4.48997e-011 1.59799e-026   
     length 1.60029   
     axis -1.17785e-014 -90 -90   XYZ
    dof ry
    limits (-180.0 0.0)
  end
  begin
     id 28
     name rhand
     direction -1 -4.49023e-011 3.19599e-026   
     length 0.960433   
     axis -2.03931e-014 -90 -90   XYZ
    dof rx rz
    limits (-90.0 90.0)
           (-45.0 45.0)
  end
  begin
     id 29
     name rfingers
     direction -1 -4.48802e-011 6.39197e-026   
     length 0.774326   
     axis -4.07862e-014 -90 -90   XYZ
    dof rx
    limits (0.0 90.0)
  end
  begin
     id 30
     name rthumb
     direction -0.707107 -6.34876e-011 0.707107   
     length 1.11178   
     axis -90 -45 -2.85299e-015   XYZ
    dof rx rz
    limits (-45.0 45.0)
           (-45.0 45.0)
  end
:hierarchy
  begin
    root lhipjoint rhipjoint lowerback
    lhipjoint lfemur
    lfemur ltibia
    ltibia lfoot
    lfoot ltoes
    rhipjoint rfemur
    rfemur rtibia
    rtibia rfoot
    rfoot rtoes
    lowerback upperback
    upperback thorax
    thorax lowerneck lclavicle rclavicle
    lowerneck upperneck
    upperneck head
    lclavicle lhumerus
    lhumerus lradius
    lradius lwrist
    lwrist lhand lthumb
    lhand lfingers
    rclavicle rhumerus
    rhumerus rradius
    rradius rwrist
    rwrist rhand rthumb
    rhand rfingers
end

#!OML:ASF C:\KaitlinTest1\Natural Motions\Nikki\Session 2\Nikki.ASF
:FULLY-SPECIFIED
:DEGREES
1
root -13.265 16.5509 4.83746 -72.9519 88.1687 -81.4215
lowerback -10.5371 -1.88059 2.16371
upperback -3.87865 -2.56008 -0.628567
thorax 1.73732 -1.23612 -2.16513
lowerneck -6.08098 -10.3099 -10.1519
upperneck 5.98464 41.8977 5.82318
head 167.196 63.4994 -38.2083
rclavicle -4.32854e-014 -1.55052e-014
rhumerus -38.5396 -25.0652 -80.448
rradius 17.4167
rwrist 22.0908
rhand -35.5352 2.54492
rfingers 7.12502
rthumb -8.66132 -27.2574
lclavicle -4.32854e-014 -1.55052e-014
lhumerus -40.2019 15.3272 81.3975
lradius 21.331
lwrist -43.4578
lhand -34.3724 3.78909
lfingers 7.12502
lthumb -7.53899 33.6347
rfemur -6.1797 -16.6054 21.1945
rtibia 11.915
rfoot -11.3836 10.3208
rtoes 2.22639e-014
lfemur -12.778 15.2227 -17.8025
ltibia 20.1927
lfoot -7.92692 -16.1736
ltoes 9.38264e-014
2
root -13.2652 16.5509 4.83811 -72.4779 88.1544 -80.9369
lowerback -10.5407 -1.86525 2.19181
upperback -3.87014 -2.54291 -0.633721
thorax 1.74748 -1.22767 -2.18464
lowerneck -6.06472 -10.3193 -10.1476
upperneck 5.9865 41.8794 5.82021
head 167.159 63.5122 -38.2285
rclavicle 8.39865e-015 5.96354e-015
rhumerus -38.5462 -25.1093 -80.4388
rradius 17.3973
rwrist 22.1548
rhand -35.5758 2.50919
rfingers 7.12502
rthumb -8.70047 -27.2915
lclavicle 8.39865e-015 5.96354e-015
lhumerus -40.2388 15.3961 81.3644
lradius 21.3651
lwrist -43.544
lhand -34.2712 3.87666
lfingers 7.12502
lthumb -7.44138 33.7258
rfemur -6.12358 -16.6036 21.2057
rtibia 11.8134
rfoot -11.3271 10.3305
rtoes -2.62396e-014
lfemur -12.7833 15.2107 -17.7834
ltibia 20.2439
lfoot -7.95133 -16.1389
ltoes -2.06736e-014
3
root -13.2623 16.5484 4.83877 -74.4519 88.0244 -82.7774
lowerback -10.4545 -1.85894 2.33923
upperback -3.82138 -2.55135 -0.61174
thorax 1.74468 -1.23342 -2.24337
lowerneck -6.04958 -10.316 -10.1417
upperneck 5.99784 41.8992 5.83669
head 167.202 63.5054 -38.206
rclavicle -4.02539e-014 -3.18055e-015
rhumerus -38.551 -25.1393 -80.443
rradius 17.3599
rwrist 22.1953
rhand -35.5766 2.5379
rfingers 7.12502
rthumb -8.70123 -27.2628
lclavicle -4.02539e-014 -3.18055e-015
lhumerus -40.0885 14.885 81.6779
lradius 21.1627
lwrist -42.8564
lhand -34.4299 3.93719
lfingers 7.12502
lthumb -7.59457 33.7808
rfemur -5.88783 -16.3996 21.3475
rtibia 11.6685
rfoot -11.2521 10.1144
rtoes -1.59028e-014
lfemur -12.6604 15.1844 -17.552
ltibia 20.319
lfoot -8.00332 -16.1412
ltoes 3.02153e-014
4
root -13.2628 16.5482 4.83982 -74.4813 88.0305 -82.788
lowerback -10.4428 -1.78715 2.34257
upperback -3.85975 -2.45545 -0.571736
thorax 1.70537 -1.18576 -2.19168
lowerneck -5.90404 -10.3428 -10.3269
upperneck 6.03821 41.9233 5.79717
head 167.267 63.3166 -38.0939
rclavicle 6.01324e-015 0
rhumerus -38.687 -25.1193 -80.2469
rradius 17.4063
rwrist 22.0928
rhand -35.5608 2.49597
rfingers 7.12502
rthumb -8.68595 -27.3053
lclavicle 6.01324e-015 0
lhumerus -40.2003 14.8583 81.8378
lradius 21.1539
lwrist -42.8645
lhand -34.4999 3.86401
lfingers 7.12502
lthumb -7.66208 33.7052
rfemur -5.80695 -16.3581 21.3391
rtibia 11.5434
rfoot -11.1921 10.0926
rtoes 7.95139e-015
lfemur -12.6658 15.1712 -17.5466
ltibia 20.3812
lfoot -8.04944 -16.1246
ltoes 4.6118e-014
5
root -13.249 16.5409 4.84817 -77.0314 87.7856 -85.0664
lowerback -10.3758 -1.78376 2.4873
upperback -3.7481 -2.47232 -0.487241
thorax 1.78111 -1.19435 -2.1874
lowerneck -5.8782 -10.3421 -10.3382
upperneck 6.06139 41.9685 5.81156
head 167.291 63.2772 -38.0813
rclavicle 1.25483e-014 -4.77083e-015
rhumerus -38.7226 -25.0982 -80.2349
rradius 17.3891
rwrist 22.1206
rhand -35.5518 2.47478
rfingers 7.12502
rthumb -8.67726 -27.3269
lclavicle 1.25483e-014 -4.77083e-015
lhumerus -40.2579 14.8666 81.8661
lradius 21.1996
lwrist -42.7377
lhand -34.4757 3.8325
lfingers 7.12502
lthumb -7.63874 33.6745
rfemur -5.37213 -15.542 21.6461
rtibia 11.4199
rfoot -11.1001 9.21852
rtoes 1.59028e-014
lfemur -12.3805 15.2004 -17.0635
ltibia 20.4509
lfoot -8.0938 -16.2027
ltoes -3.97569e-014
6
root -13.2505 16.5409 4.84892 -77.3536 87.8181 -85.3907
lowerback -10.3574 -1.79043 2.45399
upperback -3.75729 -2.47661 -0.505577
thorax 1.76192 -1.19673 -2.18725
lowerneck -5.86516 -10.3445 -10.3153
upperneck 6.07854 41.9958 5.83211
head 167.291 63.277 -38.0938
rclavicle 1.72446e-014 -1.19271e-015
rhumerus -38.7375 -25.0583 -80.2907
rradius 17.4069
rwrist 22.0137
rhand -35.5535 2.45743
rfingers 7.12502
rthumb -8.67893 -27.3442
lclavicle 1.72446e-014 -1.19271e-015
lhumerus -40.301 14.9417 81.8157
lradius 21.2023
lwrist -42.7831
lhand -34.4713 3.8325
lfingers 7.12502
lthumb -7.63451 33.6747
rfemur -5.33982 -15.5352 21.618
rtibia 11.342
rfoot -11.024 9.19112
rtoes -1.19271e-014
lfemur -12.4052 15.1844 -17.0966
ltibia 20.4919
lfoot -8.12232 -16.2024
ltoes 2.22639e-014
7
root -13.2512 16.5401 4.84926 -77.5024 87.7953 -85.5366
lowerback -10.3803 -1.78241 2.49267
upperback -3.7411 -2.47095 -0.505713
thorax 1.7898 -1.19367 -2.20972
lowerneck -5.87882 -10.3465 -10.3195
upperneck 6.08306 42.0225 5.83457
head 167.291 63.2588 -38.1028
rclavicle 4.88016e-014 9.14409e-015
rhumerus -38.7235 -25.0623 -80.3038
rradius 17.3918
rwrist 22.0167
rhand -35.5531 2.4843
rfingers 7.12502
rthumb -8.67856 -27.3173
lclavicle 4.88016e-014 9.14409e-015
lhumerus -40.3225 14.9958 81.8101
lradius 21.2329
lwrist -42.8025
lhand -34.3914 3.80315
lfingers 7.12502
lthumb -7.55735 33.6481
rfemur -5.30584 -15.6005 21.6421
rtibia 11.2646
rfoot -11.0013 9.26815
rtoes 1.74931e-014
lfemur -12.4153 15.1779 -17.0729
ltibia 20.5311
lfoot -8.17145 -16.1845
ltoes -4.77083e-015
8
root -13.2514 16.541 4.85045 -77.6121 87.7872 -85.6333
lowerback -10.3587 -1.77653 2.49951
upperback -3.74732 -2.46297 -0.51315
thorax 1.77131 -1.19011 -2.2194
lowerneck -5.86401 -10.3508 -10.3054
upperneck 6.1006 42.0516 5.8528
head 167.295 63.2503 -38.111
rclavicle -1.73937e-014 -3.57812e-015
rhumerus -38.7505 -25.0507 -80.3357
rradius 17.4018
rwrist 21.9839
rhand -35.5354 2.38837
rfingers 7.12502
rthumb -8.66144 -27.4139
lclavicle -1.73937e-014 -3.57812e-015
lhumerus -40.351 14.9597 81.8275
lradius 21.2186
lwrist -42.7322
lhand -34.359 3.80438
lfingers 7.12502
lthumb -7.52608 33.6505
rfemur -5.29329 -15.5993 21.6498
rtibia 11.2707
rfoot -11.0179 9.27467
rtoes -1.03368e-014
lfemur -12.4034 15.1676 -17.0581
ltibia 20.5249
lfoot -8.16156 -16.1748
ltoes 4.92986e-014
9
root -13.2523 16.5415 4.85057 -78.278 87.8034 -86.2869
lowerback -10.3376 -1.77891 2.50094
upperback -3.74929 -2.46545 -0.526591
thorax 1.75687 -1.19173 -2.23355
lowerneck -5.85281 -10.3589 -10.2968
upperneck 6.10783 42.0514 5.85648
head 167.257 63.2698 -38.1428
rclavicle 3.53091e-014 1.23246e-014
rhumerus -38.7818 -25.0094 -80.3768
rradius 17.4447
rwrist 21.9371
rhand -35.5457 2.34415
rfingers 7.12502
rthumb -8.67145 -27.4577
lclavicle 3.53091e-014 1.23246e-014
lhumerus -40.4063 15.04 81.787
lradius 21.2298
lwrist -42.866
lhand -34.2965 3.7898
lfingers 7.12502
lthumb -7.46579 33.6381
rfemur -5.26591 -15.6222 21.6311
rtibia 11.2522
rfoot -11.0029 9.26545
rtoes 8.74653e-015
lfemur -12.3871 15.16 -17.0658
ltibia 20.5289
lfoot -8.17926 -16.1817
ltoes -4.29375e-014
